<?xml version="1.0" encoding="utf-8"?>
<!-- Generator: Adobe Illustrator 23.1.1, SVG Export Plug-In . SVG Version: 6.00 Build 0)  -->
<svg version="1.1" id="Laag_1" xmlns="http://www.w3.org/2000/svg" xmlns:xlink="http://www.w3.org/1999/xlink" x="0px" y="0px"
	 viewBox="0 0 914.9 245.4" style="enable-background:new 0 0 914.9 245.4;" xml:space="preserve">
<style type="text/css">
	.st0{fill:#FF6200;}
	.st1{fill:#FFFFFF;}
	.st2{clip-path:url(#SVGID_2_);fill:#FFFFFF;}
	.st3{clip-path:url(#SVGID_2_);fill:#FF6200;}
	.st4{fill:#EA621B;}
	.st5{clip-path:url(#SVGID_4_);fill:#FF6200;}
</style>
<rect x="539.6" y="40.2" class="st0" width="345" height="100.3"/>
<g>
	<path class="st1" d="M600.8,84c-3.5,7.8-7.1,16.1-11,24.9s-5.9,13.3-6,13.6h-4.6c-0.1-0.3-2.1-4.6-5.8-12.9
		c-3.7-8.3-7.5-16.7-11.3-25.2l5.8-2.6l13.9,32.9h0.1l13.5-32.8L600.8,84z"/>
	<path class="st1" d="M645.3,102.5c0,3.1-0.5,6-1.6,8.8c-1.1,2.8-2.7,5.2-4.7,7.2c-1.7,1.7-3.7,2.9-5.8,3.8
		c-2.1,0.9-4.5,1.3-7.2,1.3c-2.5,0-4.9-0.4-7.1-1.3c-2.2-0.9-4.2-2.1-5.9-3.8c-2-1.9-3.6-4.3-4.6-7.1c-1.1-2.8-1.6-5.8-1.6-8.9
		c0-3,0.5-5.8,1.4-8.4c0.9-2.5,2.4-4.8,4.4-6.9c1.8-1.8,3.8-3.3,6.2-4.2c2.3-1,4.8-1.5,7.4-1.5c2.7,0,5.2,0.5,7.5,1.4
		c2.2,0.9,4.2,2.3,5.9,4.1c2,2.1,3.5,4.4,4.5,7C644.9,96.5,645.3,99.4,645.3,102.5z M639,102.7c0-2.5-0.4-4.9-1.2-7.2
		c-0.8-2.3-2-4.3-3.7-5.9c-1-1-2.2-1.8-3.7-2.3c-1.4-0.5-2.9-0.8-4.4-0.8c-1.8,0-3.4,0.3-4.7,0.9c-1.3,0.6-2.6,1.5-3.8,2.7
		c-1.4,1.4-2.5,3.2-3.3,5.5c-0.8,2.2-1.2,4.5-1.2,6.9c0,2.7,0.4,5.2,1.2,7.4c0.8,2.3,2.1,4.2,4,5.8c1,0.9,2.2,1.6,3.6,2.1
		c1.3,0.5,2.8,0.7,4.3,0.7c1.7,0,3.2-0.3,4.6-0.9c1.4-0.6,2.7-1.4,3.8-2.5c1.5-1.5,2.6-3.4,3.4-5.5C638.6,107.4,639,105.1,639,102.7
		z"/>
	<path class="st1" d="M691.4,102.5c0,3.1-0.5,6-1.6,8.8c-1.1,2.8-2.7,5.2-4.7,7.2c-1.7,1.7-3.7,2.9-5.8,3.8
		c-2.1,0.9-4.5,1.3-7.2,1.3c-2.5,0-4.9-0.4-7.1-1.3c-2.2-0.9-4.2-2.1-5.9-3.8c-2-1.9-3.6-4.3-4.6-7.1c-1.1-2.8-1.6-5.8-1.6-8.9
		c0-3,0.5-5.8,1.4-8.4c0.9-2.5,2.4-4.8,4.4-6.9c1.8-1.8,3.8-3.3,6.2-4.2c2.3-1,4.8-1.5,7.4-1.5c2.7,0,5.2,0.5,7.5,1.4
		c2.2,0.9,4.2,2.3,5.9,4.1c2,2.1,3.5,4.4,4.5,7C690.9,96.5,691.4,99.4,691.4,102.5z M685.1,102.7c0-2.5-0.4-4.9-1.2-7.2
		c-0.8-2.3-2-4.3-3.7-5.9c-1-1-2.2-1.8-3.7-2.3c-1.4-0.5-2.9-0.8-4.4-0.8c-1.8,0-3.4,0.3-4.7,0.9c-1.3,0.6-2.6,1.5-3.8,2.7
		c-1.4,1.4-2.5,3.2-3.3,5.5c-0.8,2.2-1.2,4.5-1.2,6.9c0,2.7,0.4,5.2,1.2,7.4c0.8,2.3,2.1,4.2,4,5.8c1,0.9,2.2,1.6,3.6,2.1
		c1.3,0.5,2.8,0.7,4.3,0.7c1.7,0,3.2-0.3,4.6-0.9c1.4-0.6,2.7-1.4,3.8-2.5c1.5-1.5,2.6-3.4,3.4-5.5
		C684.7,107.4,685.1,105.1,685.1,102.7z"/>
	<path class="st1" d="M725.4,87.1c-1.4,0.3-3.7,1.1-6.7,2.2c-3,1.1-6.4,2.6-10.3,4.4c0,0.3,0,1.6,0,4c0,2.4,0,4.6,0,6.6
		c0,3.1,0,6.8,0.1,11.1s0.1,6.6,0.1,7.1h-6.2c0-0.4,0-1.9,0.1-4.4c0.1-2.5,0.1-6.8,0.1-12.8c0-2.5,0-5.9,0-10.3
		c0-4.4-0.1-8.6-0.1-12.5h6.1v6l0,0c3-1.7,5.9-3.1,8.8-4.4c2.9-1.2,5.2-2.1,7-2.5L725.4,87.1z"/>
	<path class="st1" d="M761.2,122.3c0,2.5-0.4,4.9-1.1,7.1c-0.7,2.2-1.9,4.1-3.6,5.7c-1.5,1.4-3.4,2.5-5.6,3.5s-5.2,1.6-8.9,2
		l-1.3-4.8c2.5-0.3,4.7-0.7,6.6-1.3c1.9-0.6,3.4-1.4,4.5-2.4c1.2-1.1,2-2.5,2.6-4.1c0.5-1.7,0.8-3.9,0.8-6.8c0-6.6,0-14.7-0.1-24.1
		S755,82.7,755,82.5h6.2c0,0.4,0,2.4,0,6.1c0,3.7,0,8.1,0,13.3c0,3.3,0,6.8,0,10.5C761.2,116,761.2,119.3,761.2,122.3z M761.6,74.8
		h-7V68h7V74.8z"/>
	<path class="st1" d="M810.7,102.5c0,3.1-0.5,6-1.6,8.8c-1.1,2.8-2.7,5.2-4.7,7.2c-1.7,1.7-3.7,2.9-5.8,3.8
		c-2.1,0.9-4.5,1.3-7.2,1.3c-2.5,0-4.9-0.4-7.1-1.3c-2.2-0.9-4.2-2.1-5.9-3.8c-2-1.9-3.6-4.3-4.6-7.1c-1.1-2.8-1.6-5.8-1.6-8.9
		c0-3,0.5-5.8,1.4-8.4c0.9-2.5,2.4-4.8,4.4-6.9c1.8-1.8,3.8-3.3,6.2-4.2c2.3-1,4.8-1.5,7.4-1.5c2.7,0,5.2,0.5,7.5,1.4
		c2.2,0.9,4.2,2.3,5.9,4.1c2,2.1,3.5,4.4,4.5,7C810.2,96.5,810.7,99.4,810.7,102.5z M804.4,102.7c0-2.5-0.4-4.9-1.2-7.2
		c-0.8-2.3-2-4.3-3.7-5.9c-1-1-2.2-1.8-3.7-2.3c-1.4-0.5-2.9-0.8-4.4-0.8c-1.8,0-3.4,0.3-4.7,0.9c-1.3,0.6-2.6,1.5-3.8,2.7
		c-1.4,1.4-2.5,3.2-3.3,5.5c-0.8,2.2-1.2,4.5-1.2,6.9c0,2.7,0.4,5.2,1.2,7.4c0.8,2.3,2.1,4.2,4,5.8c1,0.9,2.2,1.6,3.6,2.1
		c1.3,0.5,2.8,0.7,4.3,0.7c1.7,0,3.2-0.3,4.6-0.9c1.4-0.6,2.7-1.4,3.8-2.5c1.5-1.5,2.6-3.4,3.4-5.5
		C804,107.4,804.4,105.1,804.4,102.7z"/>
	<path class="st1" d="M854.2,122.5h-6v-4.6l0,0c-1.8,1.2-4.1,2.5-6.9,3.7c-2.8,1.3-5.5,1.9-8.1,1.9c-3.6,0-6.5-1.1-8.5-3.2
		c-2.1-2.2-3.1-5.2-3.1-9.1c0-2.1,0-4.6,0.1-7.5c0-2.9,0.1-5,0.1-6.3c0-2.4,0-5.4-0.1-8.9c-0.1-3.5-0.1-5.5-0.1-5.9h6.2
		c0,0.3,0,2.2-0.1,5.7c-0.1,3.5-0.1,6.2-0.1,8.3c0,1.8,0,4.1,0,6.8c0,2.7,0,4.6,0,5.8c0.1,3.1,0.6,5.4,1.6,6.8c1,1.4,2.7,2.2,5,2.2
		c2.3,0,4.9-0.6,7.7-1.9c2.8-1.3,4.9-2.4,6.2-3.3c0-0.3,0-1.8,0-4.4c0-2.6,0-5.8,0-9.7c0-2.8,0-6.1-0.1-9.9c-0.1-3.9-0.1-6-0.1-6.3
		h6.2c0,0.4,0,1.9-0.1,4.4c-0.1,2.5-0.1,6.8-0.1,12.9c0,3.4,0,6.4,0,9C854.1,111.3,854.1,115.9,854.2,122.5z"/>
</g>
<g>
	<defs>
		<rect id="SVGID_1_" x="59.9" y="27.3" width="824.8" height="191.6"/>
	</defs>
	<clipPath id="SVGID_2_">
		<use xlink:href="#SVGID_1_"  style="overflow:visible;"/>
	</clipPath>
	<path class="st2" d="M170,108.2c-0.8,0-1.5,0.3-2,0.9l-75.3,75.4l4.1,4.1l73.3-73.4l59,59.3l4.1-4.1l-61-61.3
		C171.6,108.5,170.8,108.2,170,108.2"/>
	<path class="st2" d="M213.5,152.4c-0.8,0-1.5,0.3-2,0.9l-12.4,12.4l-12.5-12.4c-1.1-1.1-3-1.1-4.1,0l-12.4,12.4l-12.4-12.4
		c-1.1-1.1-3-1.1-4.1,0L141,165.7l-5.2-5.2c-1.1-1.2-2.9-1.3-4.1-0.2c-1.2,1.1-1.3,2.9-0.2,4.1l0.2,0.2l7.3,7.3c1.1,1.1,3,1.1,4.1,0
		l12.4-12.4l12.4,12.4c1.1,1.1,3,1.1,4.1,0l12.4-12.4l12.5,12.4c1.1,1.1,3,1.1,4.1,0l14.5-14.5c1.2-1.1,1.2-2.9,0.1-4.1
		C215.1,152.7,214.3,152.4,213.5,152.4"/>
	<path class="st2" d="M129.4,119.8c-0.8,0-1.5,0.3-2,0.9l-49.3,49.7l4.1,4.1l47.3-47.7l12.5,12.4l4.1-4.1l-14.5-14.5
		C131,120.1,130.2,119.8,129.4,119.8"/>
	<path class="st2" d="M98.9,151.7c-1.6,0-2.9,1.3-2.9,2.9c0,0.8,0.3,1.5,0.9,2.1l8.7,8.7c1.1,1.2,2.9,1.2,4.1,0.1
		c1.2-1.1,1.2-2.9,0.1-4.1l-0.1-0.1l-8.7-8.7C100.4,152,99.7,151.7,98.9,151.7"/>
	<path class="st2" d="M155.6,218.9c-52.8,0-95.8-43-95.8-95.8c0-52.8,43-95.8,95.8-95.8c17.6,0,34.8,4.8,49.8,14
		c2.1,1.3,4.1,2.6,6.1,4c0,0,1.4,1.5,0.1,3.3c-1.4,1.8-3.4,1.4-3.4,1.4c-1.9-1.3-3.8-2.6-5.7-3.8c-14.1-8.6-30.2-13.1-46.8-13.1
		c-49.6,0-90,40.4-90,90c0,49.6,40.4,90,90,90c46.4,0,85.8-36.2,89.7-82.4c0,0,0.8-1.8,3.1-1.5c2.3,0.3,2.7,2,2.7,2
		C247,180.3,205,218.9,155.6,218.9"/>
	<path class="st3" d="M113.6,79.6c4.8,0,8.7,3.9,8.7,8.7c0,4.8-3.9,8.7-8.7,8.7s-8.7-3.9-8.7-8.7C104.8,83.4,108.7,79.6,113.6,79.6
		 M113.6,73.7c-8,0-14.5,6.5-14.5,14.5c0,8,6.5,14.5,14.5,14.5s14.5-6.5,14.5-14.5C128.1,80.3,121.5,73.7,113.6,73.7"/>
</g>
<rect x="110.7" y="63.6" class="st0" width="5.8" height="5.8"/>
<rect x="110.7" y="107.1" class="st4" width="5.8" height="5.8"/>
<rect x="132.4" y="85.4" class="st0" width="5.8" height="5.8"/>
<rect x="88.9" y="85.4" class="st0" width="5.8" height="5.8"/>
<rect x="95.3" y="70" transform="matrix(0.7071 -0.7071 0.7071 0.7071 -22.7766 90.7507)" class="st0" width="5.8" height="5.8"/>
<rect x="126" y="100.7" transform="matrix(0.7071 -0.7071 0.7071 0.7071 -35.5271 121.5329)" class="st0" width="5.8" height="5.8"/>
<rect x="126" y="70" transform="matrix(0.7071 -0.7071 0.7071 0.7071 -13.7607 112.517)" class="st0" width="5.8" height="5.8"/>
<rect x="95.3" y="100.7" transform="matrix(0.7071 -0.7071 0.7071 0.7071 -44.543 99.7666)" class="st0" width="5.8" height="5.8"/>
<g>
	<defs>
		<rect id="SVGID_3_" x="176.9" y="53.9" width="332.9" height="66.5"/>
	</defs>
	<clipPath id="SVGID_4_">
		<use xlink:href="#SVGID_3_"  style="overflow:visible;"/>
	</clipPath>
	<path class="st5" d="M370.1,53.9h-7l0.1,20.4c-3.1,0-6.3,0.3-9.6,0.9c-3.2,0.6-6.1,1.5-8.6,2.7c-4.3,1.9-7.5,4.6-9.8,8.1
		c-2.3,3.5-3.4,7.4-3.4,11.9c0,3.8,1,7.3,3.1,10.4c2,3.1,5,5.6,8.9,7.5c3,1.4,6.1,2.4,9.2,2.9c3.2,0.5,7.5,0.7,13.1,0.7
		c0.6,0,1.3,0,2.3,0c0.9,0,1.5,0,1.7,0c0-3.6-0.1-7.9-0.1-13c0-5-0.1-10.6-0.1-16.9c0-7.9,0-15.6,0.1-23.3
		C370,58.6,370.1,54.5,370.1,53.9 M362,113.8c-2.8,0-5.5-0.3-8-0.8s-4.8-1.4-6.9-2.4c-2.3-1.2-4.3-2.9-5.8-5.1
		c-1.6-2.2-2.3-4.8-2.3-7.8c0-3.4,0.8-6.3,2.4-8.9c1.6-2.5,3.9-4.5,6.9-5.8c1.9-0.9,4.1-1.5,6.7-2c2.6-0.5,5.4-0.8,8.3-0.8v4.3v3.9
		c0,8.4,0,14.7,0,18.9c0,4.1,0,6.3,0,6.6h-0.6H362z M205.5,57.9c-3.9,0-7.6,0.8-11.2,2.3c-3.5,1.5-6.6,3.7-9.1,6.4
		c-2.8,3-4.8,6.3-6.2,10.1c-1.4,3.7-2.1,7.9-2.1,12.4c0,5.1,0.9,9.7,2.6,13.8c1.8,4.1,4.1,7.5,6.9,10.1c2.6,2.5,5.5,4.3,8.7,5.6
		c3.2,1.3,6.7,1.9,10.3,1.9c3.7,0,7.2-0.7,10.5-2c3.3-1.3,6.4-3.4,9.3-6.3c2.6-2.6,4.8-5.9,6.4-9.9c1.6-4,2.5-8.4,2.5-13.2
		c0-4.5-0.7-8.8-2.2-12.8c-1.5-4-3.7-7.5-6.6-10.4c-2.5-2.5-5.4-4.5-8.8-5.9C213.1,58.6,209.5,57.9,205.5,57.9 M205.4,114.5
		c-2.6,0-5.1-0.5-7.4-1.5c-2.3-1-4.3-2.3-6-3.9c-2.4-2.3-4.3-5.2-5.7-8.5c-1.3-3.4-2-7.2-2-11.4c0-3.8,0.7-7.4,2-10.9
		c1.3-3.5,3.2-6.4,5.5-8.8c1.9-1.9,3.9-3.3,6.2-4.2c2.3-1,4.8-1.4,7.4-1.4c2.7,0,5.2,0.5,7.4,1.4c2.2,0.9,4.2,2.3,6,4
		c2.6,2.5,4.6,5.6,5.9,9.3c1.3,3.7,1.9,7.5,1.9,11.3c0,4-0.7,7.7-2.1,10.9c-1.4,3.3-3.2,6-5.4,8.1c-1.9,1.8-3.9,3.2-6.2,4.1
		C210.5,114,208.1,114.5,205.4,114.5 M309,63.5h-6.4V74h-7.8v5.2h7.4c0,5.5,0,10.2-0.1,13.9c0,3.7-0.1,7.3-0.1,10.5
		c0,5.2,1.6,9.1,4.6,11.6c3.1,2.5,7.7,3.8,13.7,3.8c0.6,0,1.3,0,2.1,0c0.8,0,1.3-0.1,1.5-0.1l0.8-5.6c-0.2,0-0.7,0-1.4,0
		c-0.7,0-1.4,0-1.9,0c-4.3,0-7.5-0.8-9.6-2.5c-2.1-1.7-3.1-4.5-3.1-8.3V96v-4.6c0-1.5,0-3.7,0.1-6.8c0-3.1,0.1-4.9,0.1-5.5h15.8V74
		H309V63.5z M455.4,72.8c-2.9,0-5.7,0.6-8.3,1.7c-2.6,1.1-4.9,2.7-6.9,4.8c-2.2,2.3-3.8,4.8-4.9,7.7c-1,2.8-1.6,6-1.6,9.4
		c0,3.5,0.6,6.8,1.8,10c1.2,3.2,3,5.8,5.2,8c1.9,1.9,4.2,3.3,6.6,4.2c2.5,1,5.1,1.4,8,1.4c3,0,5.7-0.5,8.1-1.5
		c2.4-1,4.5-2.4,6.5-4.2c2.3-2.2,4.1-4.9,5.3-8c1.2-3.1,1.8-6.4,1.8-9.8c0-3.5-0.5-6.7-1.6-9.6c-1.1-2.9-2.8-5.5-5-7.8
		c-1.9-2-4.2-3.6-6.6-4.6C461.3,73.3,458.5,72.8,455.4,72.8 M455.4,114.2c-1.7,0-3.3-0.3-4.8-0.8c-1.5-0.5-2.8-1.3-4-2.4
		c-2-1.8-3.5-4-4.4-6.5c-0.9-2.5-1.4-5.3-1.4-8.3c0-2.7,0.4-5.2,1.3-7.7c0.9-2.5,2.1-4.5,3.7-6.1c1.3-1.4,2.7-2.4,4.2-3.1
		c1.5-0.6,3.3-1,5.3-1c1.7,0,3.4,0.3,4.9,0.9c1.6,0.6,2.9,1.5,4.1,2.6c1.9,1.8,3.3,4,4.2,6.6c0.9,2.6,1.4,5.3,1.4,8.1
		c0,2.7-0.4,5.2-1.3,7.6c-0.9,2.4-2.2,4.5-3.8,6.2c-1.2,1.2-2.6,2.2-4.2,2.8C459,113.9,457.2,114.2,455.4,114.2 M403.9,72.8
		c-2.9,0-5.7,0.6-8.3,1.7c-2.6,1.1-4.9,2.7-6.9,4.8c-2.2,2.3-3.8,4.8-4.9,7.7c-1,2.8-1.6,6-1.6,9.4c0,3.5,0.6,6.8,1.8,10
		c1.2,3.2,3,5.8,5.2,8c2,1.9,4.2,3.3,6.6,4.2c2.5,1,5.1,1.4,8,1.4c3,0,5.7-0.5,8.1-1.5c2.4-1,4.5-2.4,6.5-4.2c2.3-2.2,4.1-4.9,5.3-8
		c1.2-3.1,1.8-6.4,1.8-9.8c0-3.5-0.5-6.7-1.6-9.6c-1.1-2.9-2.8-5.5-5-7.8c-1.9-2-4.2-3.6-6.6-4.6C409.8,73.3,407,72.8,403.9,72.8
		 M403.9,114.2c-1.7,0-3.3-0.3-4.8-0.8c-1.5-0.5-2.8-1.3-4-2.4c-2-1.8-3.5-4-4.4-6.5c-0.9-2.5-1.4-5.3-1.4-8.3
		c0-2.7,0.5-5.2,1.3-7.7c0.9-2.5,2.1-4.5,3.7-6.1c1.3-1.4,2.7-2.4,4.2-3.1c1.5-0.6,3.3-1,5.3-1c1.7,0,3.4,0.3,4.9,0.9
		c1.6,0.6,2.9,1.5,4.1,2.6c1.9,1.8,3.3,4,4.2,6.6c0.9,2.6,1.3,5.3,1.3,8.1c0,2.7-0.4,5.2-1.3,7.6c-0.9,2.4-2.2,4.5-3.8,6.2
		c-1.2,1.2-2.6,2.2-4.2,2.8C407.5,113.9,405.7,114.2,403.9,114.2 M513.8,73c-1.9,0.5-4.5,1.4-7.8,2.8c-3.2,1.4-6.5,3-9.9,4.9l0,0V74
		h-6.9c0.1,4.4,0.1,9,0.1,13.9c0,4.9,0,8.8,0,11.5c0,6.8,0,11.6-0.1,14.4c-0.1,2.8-0.1,4.4-0.1,5h7c0-0.5,0-3.2-0.1-8
		c-0.1-4.8-0.1-8.9-0.1-12.4c0-2.3,0-4.7,0-7.4c0-2.6,0-4.1,0-4.4c4.4-2.1,8.2-3.7,11.6-5c3.3-1.2,5.8-2,7.4-2.4L513.8,73z
		 M284.4,74h-7c0,0.4,0,2.7,0.1,7c0.1,4.3,0.1,8,0.1,11.1c0,4.3,0,7.9,0,10.9c0,2.9,0,4.5,0,4.9c-1.5,1.1-3.8,2.3-6.9,3.7
		c-3.1,1.4-6,2.1-8.6,2.1c-2.6,0-4.4-0.8-5.6-2.4c-1.1-1.6-1.8-4.2-1.8-7.6c0-1.3,0-3.4,0-6.5c0-3,0-5.6,0-7.6c0-2.3,0-5.4,0.1-9.2
		c0.1-3.9,0.1-6,0.1-6.4h-7c0,0.5,0,2.7,0.1,6.7c0.1,3.9,0.1,7.2,0.1,9.9c0,1.5,0,3.8-0.1,7.1c0,3.3-0.1,6.1-0.1,8.4
		c0,4.4,1.1,7.8,3.4,10.2c2.3,2.4,5.5,3.6,9.5,3.6c3,0,6-0.7,9.1-2.1c3.1-1.4,5.6-2.8,7.7-4.2l0,0v5.1h6.8
		c-0.1-7.4-0.1-12.5-0.1-15.4c0-2.9,0-6.2,0-10c0-6.8,0-11.6,0.1-14.4C284.3,76.1,284.4,74.5,284.4,74"/>
</g>
</svg>
