<?xml version="1.0" encoding="utf-8"?>
<!-- Generator: Adobe Illustrator 24.2.1, SVG Export Plug-In . SVG Version: 6.00 Build 0)  -->
<svg version="1.1" baseProfile="tiny" id="Laag_1" xmlns="http://www.w3.org/2000/svg" xmlns:xlink="http://www.w3.org/1999/xlink"
	 x="0px" y="0px" viewBox="0 0 755.3 199.3" overflow="visible" xml:space="preserve">
<g>
	<path fill="#FFFFFF" d="M192.9,149.2V77.7h36.5v4.2h-31.7v26.3h29v4.1h-29v36.9H192.9z"/>
	<path fill="#FFFFFF" d="M247,149.2V84.6c5.7-0.5,10.6-0.7,14.6-0.7c6.1,0,11.2,1.6,15.2,4.8c4,3.2,6,7.7,6,13.5
		c0,3.9-1.1,7.6-3.4,10.9c-2.3,3.3-4.8,6-7.7,8.1c7.9,10.5,12.8,16.8,14.7,18.9c3.8,3.9,7.9,6.2,12.4,6.7l-0.1,3.1
		c-3.7-0.1-6.8-0.6-9.1-1.7c-2.3-1-4.6-2.8-7-5.2c-2.3-2.5-7.4-9.1-15.1-19.9c-5.4,0-10.7-0.2-15.9-0.5v26.6H247z M265,119.3
		c2.6,0,5.4-1.7,8.4-5.2c3-3.5,4.5-7.5,4.5-12.1c0-4.6-1.6-8.1-4.7-10.5c-3.1-2.4-7.2-3.6-12.2-3.6c-2.7,0-5.8,0.1-9.4,0.4v30.5
		C256.4,119.1,260.8,119.3,265,119.3z"/>
	<path fill="#FFFFFF" d="M307.8,149.2V84.3h4.6v64.9H307.8z"/>
	<path fill="#FFFFFF" d="M336.4,149.2V84.3h30.3v4H341v23.6h23.2v3.9H341V145h26.7v4.2H336.4z"/>
	<path fill="#FFFFFF" d="M386.1,149.2V83.9h2.2l42.6,49c1.5,1.7,3,3.4,4.2,5.1c1.3,1.7,2,2.6,2.1,2.6c-0.1-1.6-0.2-4.7-0.2-9.4v-47
		h4.6v65.3h-2.2L396,99.8l-5.5-6.7c0.1,1.3,0.2,4.5,0.2,9.4v46.7H386.1z"/>
	<path fill="#FFFFFF" d="M484.4,83.7c10,0,18.4,3.1,25.1,9.2c6.7,6.2,10,14.5,10,25.1s-3.1,18.6-9.2,23.9c-6.2,5.3-14.1,8-23.9,8
		c-6.7,0-13.7-0.3-20.8-1V84.3C470.9,83.9,477.2,83.7,484.4,83.7z M486.4,145.8c8.5,0,15.4-2.3,20.6-6.9c5.2-4.6,7.7-11.5,7.7-20.8
		c0-9.3-2.9-16.6-8.7-22.1c-5.8-5.5-13-8.2-21.6-8.2c-6.1,0-10.7,0.1-14,0.4v56.9C474.4,145.5,479.7,145.8,486.4,145.8z"/>
	<path fill="#FFFFFF" d="M552.6,87.1c-3.6,0-6.5,0.9-8.8,2.6c-2.3,1.7-3.4,4.2-3.4,7.3c0,3.6,1.5,6.8,4.5,9.7
		c2.1,2.1,4.9,4.2,8.2,6.5c3.4,2.3,5.7,4,7,5c1.3,1,2.8,2.4,4.6,4.1c3.3,3.3,4.9,7,4.9,11.3c0,5.5-1.9,9.7-5.6,12.6
		c-3.7,2.8-8.9,4.2-15.5,4.2c-6.6,0-12.2-1.7-16.6-5.2l2.4-3.5c4.5,3.1,9.3,4.6,14.4,4.6c5.1,0,9-1.1,11.8-3.2
		c2.8-2.1,4.2-5.1,4.2-9c0-3.3-1.4-6.4-4.3-9.2c-2-2-4.7-4.2-8-6.5c-3.4-2.3-5.7-4-7.1-5.1c-1.3-1-2.9-2.4-4.7-4.1
		c-3.4-3.4-5.1-7.3-5.1-11.8c0-4.5,1.6-8,4.8-10.5c3.2-2.5,7.5-3.8,13.1-3.8s10.6,1.1,15.1,3.3l-1.7,3.7
		C562.7,88.1,558,87.1,552.6,87.1z"/>
	<path fill="#FFFFFF" d="M637.7,149.2v-32.8h-45.1v32.8H588V84.3h4.6v28h45.1v-28h4.6v64.9H637.7z"/>
	<path fill="#FFFFFF" d="M666.3,149.2V84.3h4.6v64.9H666.3z"/>
	<path fill="#FFFFFF" d="M694.9,149.2V84.7c5-0.5,10.3-0.8,15.8-0.8s10.3,1.5,14.2,4.4c3.9,3,5.8,7.5,5.8,13.5s-2.6,10.9-7.9,14.8
		c-5.3,3.8-11.5,5.8-18.7,5.8c-0.3,0-0.7,0-1.1,0v-3.2c0.3,0,0.5,0,0.7,0c5.9,0,11.1-1.6,15.5-4.7c4.4-3.1,6.6-7.2,6.6-12.2
		s-1.6-8.6-4.7-10.9c-3.1-2.3-7.2-3.4-12.2-3.4c-2.7,0-5.8,0.1-9.4,0.4v60.9H694.9z"/>
</g>
<g>
	<g>
		<g>
			<path fill="#FFFFFF" d="M74.4,66.4c-4.3,0-9.7-1.1-9.7-6.3s5.1-9.7,10-10c4.8-0.3,10,4,9.1,9.1C83.2,63.8,78.4,65.8,74.4,66.4
				c-5.4,0.9-5.4,9.4,0,8.5c8.8-1.1,17.7-5.7,18.2-15.7c0.6-9.7-8.3-17.9-17.7-17.7s-18.2,8.5-18.8,17.9
				C55.6,69.8,65,74.9,74.4,74.9C79.8,74.9,79.8,66.4,74.4,66.4L74.4,66.4z"/>
		</g>
	</g>
	<g>
		<g>
			<path fill="#FFFFFF" d="M40.8,149.3c-9.1-11.1,4.3-32.5,12.2-40.2c12-11.7,27.9-17.7,43.9-21.7c12.8-3.1,28.8-8.3,41.9-4
				c9.1,2.8,17.1,10.8,16.8,21.1c-0.3,4.8-4.3,13.1-9.4,14.5c-14.5,4-4-12.2-0.3-16.2c3.7-4-2.3-10-6-6c-6.8,7.1-14.8,17.1-8,27.3
				c5.1,7.7,14,5.4,20.5,1.1c20.5-13.7,11.7-42.4-9.4-49.9c-12.8-4.6-26.2-1.1-39.3,1.7c-15.7,3.4-31.6,8-45,16.8
				c-16.8,11.1-40.5,41-23.9,61.2C38.2,159.5,44.2,153.5,40.8,149.3L40.8,149.3z"/>
		</g>
	</g>
	<g>
		<g>
			<path fill="#FFFFFF" d="M137.3,97.7c-13.4-7.7-28.8-8.3-37.9,6c-8.3,12.8-9.1,30.2-6.8,44.7c0.9,5.4,9.1,3.1,8.3-2.3
				c-1.7-10.8-0.9-23.1,3.4-33.3c5.7-13.4,16.8-14.2,28.8-7.7C137.9,108,142.2,100.5,137.3,97.7L137.3,97.7z"/>
		</g>
	</g>
	<g>
		<g>
			<path fill="#FFFFFF" d="M156.7,117.6c6,7.4,13.4,17.4,13.4,27.3c0,5.4,8.5,5.4,8.5,0c0-12.5-8.5-24.2-16-33.3
				C159.3,107.4,153.3,113.4,156.7,117.6L156.7,117.6z"/>
		</g>
	</g>
	<g>
		<g>
			<path fill="#FFFFFF" d="M108.8,60.4c-3.1,0-5.1-0.3-4.6-3.1c0.6-2.8,3.1-6,6.3-6.3c2.6-0.3,4.3,1.4,4.6,3.7c0.6,3.7-2.8,5.4-6,6
				c-5.4,0.9-3.1,9.1,2.3,8.3c7.4-1.4,13.1-7.1,12.2-14.8c-0.9-7.1-6.8-12.5-14-11.7c-6.8,0.9-12.5,7.1-13.7,14
				c-1.1,8,5.4,13.1,12.8,12.5C114.5,68.6,114.5,60.1,108.8,60.4L108.8,60.4z"/>
		</g>
	</g>
</g>
</svg>
